HIERARCHY
ROOT Hips
{
	OFFSET 58.330601 -11.804016 96.945000
	CHANNELS 6 Xposition Yposition Zposition Xrotation Yrotation Zrotation
	JOINT spine
	{
		OFFSET 0.000000 -0.458068 7.965683
		CHANNELS 3 Xrotation Yrotation Zrotation
		JOINT spine1
		{
			OFFSET 0.000000 -0.000002 10.243103
			CHANNELS 3 Xrotation Yrotation Zrotation
			JOINT spine2
			{
				OFFSET 0.000000 -0.000001 9.814751
				CHANNELS 3 Xrotation Yrotation Zrotation
				JOINT Neck
				{
					OFFSET 0.000000 -1.201385 25.198608
					CHANNELS 3 Xrotation Yrotation Zrotation
					JOINT Head
					{
						OFFSET 0.000000 -0.000001 7.613144
						CHANNELS 3 Xrotation Yrotation Zrotation
						End Site
						{
							OFFSET 0.000000 6.077327 18.428101
						}
					}
				}
				JOINT RightShoulder
				{
					OFFSET -4.132702 0.575449 10.599197
					CHANNELS 3 Xrotation Yrotation Zrotation
					JOINT RightArm
					{
						OFFSET 0.000000 -0.000003 13.901794
						CHANNELS 3 Xrotation Yrotation Zrotation
						JOINT RightArmRoll
						{
							OFFSET 0.000000 -0.000001 7.017883
							CHANNELS 3 Xrotation Yrotation Zrotation
							JOINT RightForeArm
							{
								OFFSET 0.000000 -0.000003 20.440598
								CHANNELS 3 Xrotation Yrotation Zrotation
								JOINT RightForeArmRoll
								{
									OFFSET 0.000000 -0.000002 7.875153
									CHANNELS 3 Xrotation Yrotation Zrotation
									JOINT RightHand
									{
										OFFSET 0.000000 -0.000002 15.803696
										CHANNELS 3 Xrotation Yrotation Zrotation
										End Site
										{
											OFFSET 0.000000 0.000000 0.100006
										}
									}
								}
							}
						}
					}
				}
				JOINT LeftShoulder
				{
					OFFSET 4.132702 0.575449 10.599197
					CHANNELS 3 Xrotation Yrotation Zrotation
					JOINT LeftArm
					{
						OFFSET 0.000000 -0.000003 13.901794
						CHANNELS 3 Xrotation Yrotation Zrotation
						JOINT LeftArmRoll
						{
							OFFSET 0.000000 -0.000001 7.017883
							CHANNELS 3 Xrotation Yrotation Zrotation
							JOINT LeftForeArm
							{
								OFFSET 0.000000 -0.000003 20.440598
								CHANNELS 3 Xrotation Yrotation Zrotation
								JOINT LeftForeArmRoll
								{
									OFFSET 0.000000 -0.000002 7.875153
									CHANNELS 3 Xrotation Yrotation Zrotation
									JOINT LeftHand
									{
										OFFSET 0.000000 -0.000002 15.803696
										CHANNELS 3 Xrotation Yrotation Zrotation
										End Site
										{
											OFFSET 0.000000 0.000000 0.100006
										}
									}
								}
							}
						}
					}
				}
			}
		}
	}
	JOINT RightUpLeg
	{
		OFFSET -7.060482 1.086101 -1.294701
		CHANNELS 3 Xrotation Yrotation Zrotation
		JOINT RightUpLegRoll
		{
			OFFSET 0.000000 -0.000004 18.530800
			CHANNELS 3 Xrotation Yrotation Zrotation
			JOINT RightLeg
			{
				OFFSET 0.000000 0.000004 -22.947601
				CHANNELS 3 Xrotation Yrotation Zrotation
				JOINT RightLegRoll
				{
					OFFSET 0.000000 -0.000004 23.022598
					CHANNELS 3 Xrotation Yrotation Zrotation
					JOINT RightFoot
					{
						OFFSET 0.000000 -0.000003 19.162498
						CHANNELS 3 Xrotation Yrotation Zrotation
						JOINT RightToeBase
						{
							OFFSET 0.000000 -0.000003 16.018799
							CHANNELS 3 Xrotation Yrotation Zrotation
							End Site
							{
								OFFSET 0.006790 0.894205 7.757828
							}
						}
					}
				}
			}
		}
	}
	JOINT LeftUpLeg
	{
		OFFSET 7.060482 1.086101 -1.294701
		CHANNELS 3 Xrotation Yrotation Zrotation
		JOINT LeftUpLegRoll
		{
			OFFSET 0.000000 -0.000004 18.530899
			CHANNELS 3 Xrotation Yrotation Zrotation
			JOINT LeftLeg
			{
				OFFSET 0.000000 -0.000003 22.947495
				CHANNELS 3 Xrotation Yrotation Zrotation
				JOINT LeftLegRoll
				{
					OFFSET 0.000000 -0.000004 23.235504
					CHANNELS 3 Xrotation Yrotation Zrotation
					JOINT LeftFoot
					{
						OFFSET 0.000000 -0.000004 18.949600
						CHANNELS 3 Xrotation Yrotation Zrotation
						JOINT LeftToeBase
						{
							OFFSET 0.000000 -0.000002 16.018799
							CHANNELS 3 Xrotation Yrotation Zrotation
							End Site
							{
								OFFSET -0.030426 0.894205 7.757828
							}
						}
					}
				}
			}
		}
	}
}
MOTION
Frames: 13
Frame Time: 0.041667
58.725502 -11.480924 96.979492 -6.514961 -0.846635 -0.969044 -0.274387 0.240985 -0.165359 3.451072 0.480748 -0.331196 5.096166 0.476758 -0.337114 7.464176 3.369382 3.377499 10.203457 -4.603010 4.022130 -5.075061 -65.736992 -6.598415 -51.133750 -136.241469 -73.195777 0.000001 -0.000000 0.000001 97.012612 -1.658017 -6.072399 0.000005 0.000008 -2.999999 -5.000183 -7.999483 0.000066 -13.701289 61.337920 16.266481 -58.884939 131.500826 91.015467 -0.000001 0.000009 -0.000000 98.680627 1.095050 8.480893 0.000006 0.000004 3.001088 -5.000209 7.999431 -0.000062 4.625650 -175.294319 4.610746 -179.999991 0.000006 -1.197000 173.288688 -1.450992 -0.517721 -0.000002 -0.000001 0.152141 70.632946 6.917713 1.941913 25.456947 -7.355614 -0.000000 5.139934 175.623589 -1.967039 -0.000005 -0.000004 -1.253490 -6.721471 2.115325 0.278537 -0.000005 0.000000 -0.105481 69.719101 -6.936674 -1.971932 25.456947 7.355613 -0.000009 
58.723705 -11.478220 96.977203 -6.507750 -0.844400 -0.955055 -0.275267 0.239981 -0.164873 3.448640 0.478697 -0.330089 5.093725 0.474723 -0.336014 7.452627 3.369828 3.369981 10.228311 -4.607888 4.016755 -5.064466 -65.692534 -6.582562 -51.143056 -136.274486 -73.959139 -0.000003 0.000000 -0.000000 96.996548 -1.651156 -6.156052 0.000000 0.000010 -3.000002 -5.000177 -7.999488 0.000064 -13.672125 61.320291 16.231950 -58.942955 131.652183 91.702666 -0.000001 0.000009 -0.000000 98.710071 1.085201 8.571359 0.000004 0.000002 3.001088 -5.000206 7.999432 -0.000063 4.622991 -175.298280 4.608947 -179.999991 0.000006 -1.196999 173.296516 -1.454000 -0.517873 -0.000003 -0.000001 0.152148 70.630822 6.917730 1.941950 25.456945 -7.355615 0.000000 5.120379 175.618480 -1.968282 -0.000005 -0.000004 -1.253440 -6.735084 2.116099 0.278654 -0.000005 0.000000 -0.105795 69.722687 -6.936621 -1.971998 25.456947 7.355613 -0.000009 
58.730404 -11.483722 96.982384 -6.500208 -0.842318 -0.941479 -0.276214 0.239069 -0.164437 3.446080 0.476841 -0.329079 5.091163 0.472881 -0.335014 7.441075 3.366722 3.362977 10.252210 -4.608980 4.011475 -5.056299 -65.650084 -6.569633 -51.157570 -136.306329 -74.728642 -0.000002 -0.000001 -0.000001 96.984581 -1.643472 -6.239694 0.000002 0.000006 -2.999999 -5.000179 -7.999483 0.000066 -13.639089 61.299896 16.192760 -58.991838 131.799865 92.372879 -0.000000 0.000007 -0.000001 98.741886 1.073094 8.663978 0.000003 0.000006 3.001090 -5.000205 7.999433 -0.000061 4.620002 -175.301245 4.608073 -179.999991 0.000005 -1.197997 173.304521 -1.457986 -0.518135 -0.000003 -0.000001 0.152136 70.628589 6.917747 1.941991 25.456943 -7.355616 0.000001 5.100998 175.613371 -1.969254 -0.000005 -0.000005 -1.253400 -6.747956 2.116828 0.278744 -0.000005 0.000000 -0.106114 69.726061 -6.936564 -1.972078 25.456947 7.355613 -0.000009 
58.728104 -11.478324 96.981003 -6.492530 -0.840351 -0.928414 -0.277207 0.238291 -0.164066 3.443469 0.475269 -0.328195 5.088552 0.471322 -0.334142 7.429816 3.358915 3.356605 10.274928 -4.605224 4.006302 -5.050792 -65.610674 -6.559960 -51.178396 -136.337761 -75.501758 -0.000001 -0.000000 0.000002 96.978325 -1.635087 -6.323298 0.000003 0.000007 -3.000000 -5.000178 -7.999479 0.000066 -13.601554 61.276188 16.148154 -59.030757 131.941810 93.023898 -0.000000 0.000008 -0.000002 98.777533 1.058232 8.757772 0.000001 0.000006 3.001089 -5.000204 7.999434 -0.000061 4.616854 -175.304223 4.607763 -179.999991 0.000006 -1.197997 173.312471 -1.461985 -0.518399 -0.000003 -0.000001 0.152107 70.626253 6.917763 1.942040 25.456943 -7.355615 0.000001 5.082098 175.608262 -1.970040 -0.000005 -0.000005 -1.253360 -6.760058 2.117519 0.278819 -0.000005 0.000001 -0.106434 69.729121 -6.936527 -1.972180 25.456948 7.355613 -0.000009 
58.733006 -11.466625 96.981789 -6.484979 -0.838460 -0.915955 -0.278213 0.237690 -0.163773 3.440869 0.474070 -0.327466 5.085962 0.470133 -0.333427 7.419153 3.345231 3.351019 10.296260 -4.595556 4.001250 -5.048177 -65.575171 -6.553917 -51.207865 -136.369125 -76.277128 -0.000003 -0.000001 -0.000002 96.979670 -1.626178 -6.409813 0.000003 0.000007 -3.000001 -5.000183 -7.999483 0.000067 -13.558916 61.248649 16.097380 -59.059929 132.075518 93.654570 0.000001 0.000006 -0.000000 98.818330 1.040257 8.854785 0.000006 0.000001 3.001088 -5.000208 7.999431 -0.000059 4.613730 -175.306190 4.607857 -179.999991 0.000005 -1.197996 173.320326 -1.466974 -0.517782 -0.000002 -0.000001 0.152072 70.623910 6.917782 1.941988 25.456945 -7.355616 0.000001 5.063983 175.604164 -1.970664 -0.000005 -0.000005 -1.253320 -6.771309 2.118175 0.278886 -0.000005 0.000001 -0.106752 69.731969 -6.936487 -1.972195 25.456943 7.355613 -0.000009 
58.736305 -11.464622 96.982193 -6.477747 -0.836608 -0.904197 -0.279208 0.237307 -0.163570 3.438367 0.473330 -0.326919 5.083460 0.469402 -0.332897 7.409389 3.324531 3.346326 10.316187 -4.578892 3.996345 -5.048683 -65.544469 -6.551815 -51.246875 -136.402074 -77.051822 -0.000004 -0.000001 -0.000002 96.990175 -1.616687 -6.496251 0.000002 0.000009 -3.000002 -5.000177 -7.999483 0.000065 -13.510568 61.216800 16.039711 -59.076970 132.200251 94.260196 0.000001 0.000008 -0.000000 98.865731 1.018635 8.954043 0.000005 0.000007 3.001089 -5.000208 7.999433 -0.000060 4.610824 -175.308170 4.608010 -179.999991 0.000005 -1.197997 173.327921 -1.470973 -0.518053 -0.000002 -0.000001 0.152031 70.621574 6.917797 1.942036 25.456945 -7.355613 0.000000 5.046988 175.600065 -1.971332 -0.000005 -0.000005 -1.253280 -6.781679 2.118825 0.278961 -0.000005 0.000001 -0.107065 69.734599 -6.936438 -1.972321 25.456948 7.355613 -0.000010 
58.732903 -11.473624 96.980598 -6.471071 -0.834756 -0.893237 -0.280166 0.237185 -0.163471 3.436027 0.473138 -0.326585 5.081111 0.469215 -0.332581 7.400828 3.295636 3.342657 10.334485 -4.554165 3.991591 -5.052521 -65.519580 -6.553996 -51.295592 -136.438957 -77.821413 -0.000000 -0.000001 -0.000001 97.011656 -1.606725 -6.584556 0.000007 0.000006 -3.000001 -5.000176 -7.999480 0.000066 -13.455976 61.180183 15.974481 -59.083172 132.313168 94.840899 -0.000002 0.000009 0.000001 98.921138 0.993073 9.055537 0.000004 0.000004 3.001091 -5.000210 7.999430 -0.000062 4.608313 -175.310138 4.607964 -179.999991 0.000005 -1.198994 173.335161 -1.474970 -0.518331 -0.000003 -0.000001 0.151990 70.619361 6.917845 1.941983 25.456945 -7.355615 0.000001 5.031428 175.595967 -1.972139 -0.000005 -0.000004 -1.253230 -6.791097 2.119469 0.279050 -0.000005 0.000000 -0.107370 69.737126 -6.936347 -1.972345 25.456950 7.355613 -0.000010 
58.736504 -11.466425 96.981392 -6.465166 -0.832866 -0.883173 -0.281056 0.237366 -0.163491 3.433917 0.473583 -0.326489 5.079001 0.469663 -0.332506 7.393771 3.257397 3.340154 10.350849 -4.520317 3.987002 -5.059921 -65.501487 -6.560802 -51.356640 -136.480294 -78.585267 -0.000002 -0.000001 -0.000001 97.045937 -1.596229 -6.672721 0.000006 0.000007 -3.000001 -5.000179 -7.999483 0.000065 -13.394432 61.138068 15.900836 -59.078186 132.412697 95.394465 -0.000001 0.000007 -0.000003 98.985820 0.963386 9.162296 0.000006 0.000005 3.001090 -5.000211 7.999430 -0.000063 4.606383 -175.312132 4.607467 -179.999991 0.000005 -1.198993 173.341909 -1.477975 -0.518506 -0.000002 -0.000001 0.151954 70.617339 6.917830 1.942106 25.456947 -7.355614 0.000000 5.017617 175.591897 -1.973187 -0.000005 -0.000004 -1.253190 -6.799527 2.120116 0.279165 -0.000005 0.000001 -0.107663 69.739326 -6.936284 -1.972499 25.456947 7.355613 -0.000009 
58.740799 -11.453127 96.984085 -6.460264 -0.830901 -0.874099 -0.281856 0.237892 -0.163641 3.432108 0.474753 -0.326661 5.077201 0.470830 -0.332703 7.388537 3.208662 3.338925 10.365264 -4.476259 3.982593 -5.071154 -65.491084 -6.572607 -51.431823 -136.527299 -79.341615 -0.000001 0.000000 -0.000000 97.094663 -1.585541 -6.762709 0.000008 0.000008 -3.000001 -5.000177 -7.999477 0.000066 -13.325484 61.090079 15.818213 -59.060536 132.497597 95.917364 0.000000 0.000008 0.000001 99.061293 0.929059 9.274372 0.000007 0.000003 3.001088 -5.000210 7.999433 -0.000060 4.605221 -175.315110 4.606181 -179.999991 0.000005 -1.198994 173.348043 -1.479975 -0.518579 -0.000003 -0.000001 0.151928 70.615434 6.917885 1.942031 25.456943 -7.355615 0.000000 5.005868 175.587826 -1.974583 -0.000005 -0.000005 -1.253150 -6.806915 2.120788 0.279318 -0.000005 0.000001 -0.107941 69.741217 -6.936243 -1.972571 25.456943 7.355613 -0.000009 
58.736603 -11.452925 96.983704 -6.456589 -0.828821 -0.866113 -0.282535 0.238804 -0.163935 3.430679 0.476736 -0.327130 5.075772 0.472809 -0.333199 7.385417 3.148256 3.339131 10.377415 -4.420942 3.978385 -5.086378 -65.489165 -6.589698 -51.521664 -136.582569 -80.086563 -0.000000 -0.000000 0.000001 97.159598 -1.574480 -6.852497 0.000003 0.000006 -3.000001 -5.000178 -7.999483 0.000065 -13.248509 61.035670 15.725841 -59.031133 132.566131 96.408653 0.000000 0.000008 -0.000000 99.148891 0.889806 9.390807 0.000005 0.000004 3.001090 -5.000206 7.999433 -0.000061 4.605006 -175.319099 4.603842 -179.999991 0.000005 -1.198994 173.353452 -1.480981 -0.518554 -0.000003 -0.000001 0.151917 70.613849 6.917905 1.942035 25.456947 -7.355614 -0.000000 4.996521 175.583769 -1.976441 -0.000005 -0.000004 -1.253120 -6.813191 2.121486 0.279519 -0.000005 0.000000 -0.108200 69.742993 -6.936166 -1.972747 25.456945 7.355613 -0.000010 
58.736404 -11.446424 96.982689 -6.453876 -0.826626 -0.858831 -0.283280 0.240214 -0.164389 3.429271 0.479764 -0.327944 5.074355 0.475826 -0.334045 7.386955 3.073527 3.340378 10.385679 -4.352528 3.973906 -5.107202 -65.497197 -6.613985 -51.630745 -136.653398 -80.831655 -0.000003 -0.000001 -0.000001 97.242776 -1.565213 -6.942923 0.000004 0.000011 -3.000002 -5.000180 -7.999481 0.000066 -13.163459 60.971077 15.623559 -58.993423 132.623737 96.871562 0.000001 0.000006 -0.000003 99.247184 0.847409 9.511463 0.000005 0.000005 3.001091 -5.000212 7.999433 -0.000057 4.605760 -175.323088 4.600863 -179.999991 0.000005 -1.198994 173.358534 -1.480006 -0.518308 -0.000003 -0.000001 0.151908 70.612360 6.917925 1.942131 25.456948 -7.355615 0.000000 4.989265 175.579752 -1.978607 -0.000005 -0.000004 -1.253080 -6.818238 2.122110 0.279749 -0.000005 0.000001 -0.108457 69.744455 -6.936110 -1.972746 25.456948 7.355613 -0.000010 
58.737804 -11.442122 96.983398 -6.451679 -0.824355 -0.851863 -0.284256 0.242154 -0.164998 3.427533 0.483904 -0.329107 5.072628 0.479951 -0.335248 7.394651 2.983861 3.342268 10.389266 -4.270905 3.968836 -5.134436 -65.514826 -6.646381 -51.761206 -136.742354 -81.589991 -0.000001 0.000000 -0.000000 97.343508 -1.559063 -7.035948 0.000006 0.000009 -3.000002 -5.000179 -7.999479 0.000067 -13.071039 60.894217 15.512147 -58.949874 132.677709 97.309589 0.000000 0.000007 -0.000002 99.353550 0.803506 9.632277 0.000005 0.000001 3.001088 -5.000211 7.999428 -0.000056 4.607311 -175.327076 4.597781 -179.999991 0.000005 -1.200005 173.363752 -1.479031 -0.518057 -0.000003 -0.000000 0.151889 70.610878 6.917946 1.942128 25.456943 -7.355614 0.000000 4.983553 175.575723 -1.980884 -0.000005 -0.000005 -1.253040 -6.822033 2.122579 0.279983 -0.000005 0.000001 -0.108725 69.745500 -6.936077 -1.972875 25.456950 7.355613 -0.000010 
58.743198 -11.451023 96.978493 -6.449948 -0.822038 -0.845290 -0.285406 0.244548 -0.165745 3.425565 0.488999 -0.330577 5.070661 0.485028 -0.336763 7.407286 2.881175 3.344881 10.388711 -4.177599 3.963326 -5.167366 -65.541075 -6.685971 -51.908355 -136.846665 -82.357205 -0.000001 -0.000002 -0.000000 97.460010 -1.555194 -7.126613 0.000005 0.000005 -3.000004 -5.000178 -7.999481 0.000067 -12.971941 60.806927 15.392468 -58.901373 132.727446 97.724783 0.000000 0.000009 -0.000002 99.467587 0.757910 9.754231 0.000001 0.000006 3.001092 -5.000210 7.999428 -0.000063 4.609485 -175.332076 4.594568 -179.999991 0.000005 -1.200005 173.369052 -1.478056 -0.517805 -0.000003 -0.000001 0.151862 70.609396 6.917968 1.942123 25.456945 -7.355616 0.000000 4.979257 175.571707 -1.983230 -0.000005 -0.000005 -1.253000 -6.824665 2.122915 0.280220 -0.000005 0.000000 -0.109001 69.746217 -6.935997 -1.973015 25.456945 7.355613 -0.000010 
